<svg width="100" height="56" viewBox="0 0 100 56" fill="none" xmlns="http://www.w3.org/2000/svg">
<mask id="mask0_81_105" style="mask-type:luminance" maskUnits="userSpaceOnUse" x="0" y="15" width="34" height="9">
<path d="M0.915527 15.8118H33.36V23.9441H0.915527V15.8118Z" fill="white"/>
</mask>
<g mask="url(#mask0_81_105)">
<path d="M33.1864 22.0981C21.5267 23.0109 13.5684 21.9249 8.91211 20.8388C9.96592 20.8405 11.0215 20.8114 12.044 20.7599C13.0163 20.7102 13.9833 20.6415 14.9468 20.5557C15.7524 20.4854 17.2402 20.3396 18.1378 20.2246C16.3375 19.9381 14.5597 19.5761 12.8131 19.1815C11.2645 18.8315 9.73329 18.4437 8.25412 17.9908C7.07009 17.6288 5.99544 17.1518 4.90342 16.6989C3.98849 16.3214 2.68294 15.666 1.67079 16.2374C0.886064 16.68 0.877383 17.5893 0.945091 18.1915C1.13606 19.8969 3.72634 20.904 5.09266 21.5148C6.75933 22.2611 8.53016 22.7655 10.3218 23.1138C14.0093 23.8293 17.8131 23.9133 21.5562 23.704C24.5458 23.5342 27.5128 23.1825 30.459 22.6489C31.3461 22.491 32.2663 22.2972 33.1864 22.0981Z" fill="black"/>
</g>
<mask id="mask1_81_105" style="mask-type:luminance" maskUnits="userSpaceOnUse" x="2" y="1" width="98" height="20">
<path d="M2.24878 1.96094H99.162V20.2038H2.24878V1.96094Z" fill="white"/>
</mask>
<g mask="url(#mask1_81_105)">
<path d="M98.0248 13.5041C97.4692 13.2536 96.8998 13.0168 96.3182 12.7955C95.6307 12.5313 94.9293 12.2894 94.214 12.0646C92.4432 11.5156 90.6463 11.0849 88.8182 10.7675C86.9588 10.4484 85.0873 10.2237 83.2036 10.0898C82.7314 10.0572 82.2574 10.0212 81.7852 10.0006L81.0751 9.96288L80.3651 9.93715C80.129 9.92857 79.8911 9.91999 79.655 9.91313L78.9449 9.90112C78.471 9.88911 77.997 9.89082 77.5231 9.88739C77.2869 9.88396 77.0508 9.88568 76.813 9.88739L76.1047 9.89254C75.6307 9.89769 75.1585 9.90798 74.6863 9.91656L73.2713 9.95945C72.8008 9.97832 72.3286 9.99548 71.8599 10.0161C70.9189 10.059 69.9797 10.107 69.0439 10.1602C68.5751 10.1876 68.1064 10.2168 67.6394 10.2477L66.2366 10.3386C62.5022 10.5874 58.78 10.8928 55.0717 11.2016C51.3616 11.5087 47.6619 11.8227 43.9675 12.0835C42.1203 12.2173 40.2748 12.334 38.4293 12.4352C36.5856 12.5347 34.7418 12.6188 32.8998 12.672C31.0578 12.7251 29.2192 12.7629 27.3824 12.756C27.1533 12.756 26.9224 12.7577 26.6932 12.756L26.0057 12.7474C25.5474 12.7423 25.089 12.7423 24.6307 12.7286L23.2574 12.696L21.8859 12.6462C20.4397 12.5862 18.9988 12.5038 17.563 12.3957C18.0387 12.2121 18.5092 12.0234 18.9727 11.8296C21.3981 10.8121 23.6585 9.68494 25.905 8.61435C28.1515 7.54548 30.3894 6.52636 32.7314 5.73029C33.0248 5.63421 33.3165 5.53298 33.6133 5.44377C33.7609 5.39916 33.9067 5.35112 34.056 5.30651L34.5057 5.18127C34.806 5.0972 35.1029 5.00798 35.4102 4.93764L35.8668 4.82612C36.0196 4.78837 36.1706 4.7472 36.3251 4.71632L37.2522 4.5173L38.1897 4.34401C38.2678 4.33029 38.346 4.31313 38.4258 4.30112L38.6619 4.26509L39.1359 4.19303C39.2956 4.17073 39.4536 4.14156 39.6116 4.12269L40.0908 4.06435L40.5699 4.00431C40.7297 3.98543 40.8911 3.97342 41.0526 3.95798L41.5352 3.91166L41.7765 3.88764L42.0196 3.87048C42.3425 3.84818 42.6654 3.82244 42.9901 3.80357L43.9658 3.75896C45.2713 3.71435 46.5821 3.72808 47.8946 3.78127C48.2227 3.79671 48.5526 3.807 48.8807 3.82931L49.8651 3.8945C50.5213 3.95112 51.1776 4.00602 51.8321 4.08151C53.1411 4.22734 54.4501 4.40234 55.747 4.62195C58.3442 5.06117 60.9154 5.62563 63.4449 6.29303C65.9797 6.95185 68.4692 7.72048 70.9415 8.532C69.7869 8.01215 68.6133 7.5146 67.4189 7.03935C66.2279 6.56239 65.0126 6.11632 63.78 5.69083C61.28 4.82612 58.7383 4.09695 56.1567 3.50161C53.497 2.88911 50.8078 2.45847 48.0873 2.20798C46.7106 2.08617 45.3234 2.01754 43.9241 2.00382C42.5283 1.99181 41.1255 2.04671 39.7279 2.16681L39.2036 2.21141C39.03 2.22514 38.8564 2.25087 38.681 2.26803L38.1602 2.3298L37.8981 2.35896C37.8113 2.36926 37.7244 2.38298 37.6394 2.39499L36.5994 2.54769L35.5682 2.72955C35.3963 2.75872 35.2262 2.79646 35.056 2.83249L34.5456 2.94058C34.2019 3.00749 33.8685 3.09499 33.5317 3.17734L33.0265 3.30087C32.8599 3.34377 32.6949 3.39181 32.5283 3.43641C32.1932 3.52563 31.8685 3.62514 31.5404 3.72122C31.3755 3.76926 31.2158 3.82416 31.0526 3.87563C30.8911 3.92538 30.7297 3.97685 30.5699 4.03176C30.2522 4.13984 29.9293 4.2445 29.6151 4.35945L29.1428 4.52931L28.6758 4.70259C28.3633 4.81754 28.0595 4.94107 27.7522 5.06117C26.53 5.54671 25.3425 6.0597 24.1758 6.57955L20.721 8.13396C19.5786 8.64524 18.438 9.13592 17.2904 9.59573C16.1428 10.0538 14.9831 10.4707 13.8078 10.8327C12.6324 11.193 11.4415 11.4847 10.2314 11.7095L2.48486 13.1403L10.3217 14.2984C12.1984 14.5746 14.0856 14.8011 15.9831 14.9778C17.879 15.1528 19.7817 15.2678 21.6828 15.3519C25.4866 15.5045 29.2904 15.4857 33.0682 15.3398C40.629 15.0516 48.0838 14.2933 55.4762 13.4852C56.6359 13.3582 57.7939 13.2313 58.9501 13.1026C57.3408 13.432 55.7366 13.7734 54.1394 14.1303L48.622 15.3759C46.7869 15.7962 44.9519 16.2011 43.1133 16.5906L41.7349 16.8788C41.2748 16.9749 40.8147 17.0675 40.3547 17.1585L38.2817 17.5651L37.5994 17.6903C35.7713 18.0077 33.9224 18.2376 32.063 18.3921C28.3217 18.6871 24.5786 18.7077 20.8338 18.4555C17.0682 18.2068 13.3338 17.7161 9.63417 16.9835C13.2349 18.1038 16.9623 18.8759 20.7349 19.37C24.53 19.859 28.3408 20.0237 32.1654 19.8624C34.0838 19.7783 35.9935 19.5982 37.8928 19.3185L38.6064 19.2087L39.3078 19.0921C39.7765 19.0148 40.2435 18.9342 40.7106 18.8484C41.1776 18.7661 41.6446 18.682 42.1099 18.5945L43.5074 18.3303C45.3685 17.9717 47.2192 17.5788 49.0682 17.1825L54.5925 15.9592C56.4293 15.5492 58.2661 15.1443 60.1047 14.7685C61.9397 14.3842 63.7817 14.0342 65.6272 13.7202C67.4727 13.4011 69.3234 13.1335 71.1828 12.9053L72.5769 12.7457L73.9744 12.6068L75.3738 12.4849L76.7748 12.3837L78.1793 12.3031L79.5856 12.2396C80.5265 12.2019 81.4675 12.1744 82.4085 12.1487C84.2887 12.1041 86.1672 12.0955 88.0422 12.1641C90.8234 12.255 93.6029 12.5313 96.3304 13.106C97.2904 13.3857 98.2331 13.6996 99.1585 14.0479C98.7887 13.8592 98.4102 13.6791 98.0248 13.5041Z" fill="black"/>
</g>
<path d="M75.2297 22.9113C75.4676 21.7447 75.9103 20.6586 76.5596 19.6532C77.2158 18.6273 78.0283 17.7403 78.9971 16.9905C79.978 16.2305 81.0579 15.6523 82.2402 15.2559C82.5336 15.1581 82.8356 15.0827 83.1343 14.9969C83.4363 14.93 83.7419 14.8733 84.0474 14.8116C84.3547 14.7721 84.6638 14.7395 84.9728 14.7052L85.4381 14.6795C85.5926 14.6726 85.7488 14.6743 85.9051 14.6726C86.5283 14.6778 87.1464 14.7327 87.761 14.8356C88.3756 14.942 88.9763 15.0981 89.5631 15.3023C90.7402 15.7123 91.8131 16.3042 92.7836 17.078C93.7419 17.8398 94.5422 18.7388 95.1863 19.7733C95.82 20.7873 96.2454 21.8802 96.4624 23.052C96.2193 22.5287 95.9433 22.0226 95.636 21.5336C95.3339 21.0532 94.9988 20.5969 94.6308 20.1628C93.9068 19.3032 93.0735 18.5638 92.1343 17.9393C91.6759 17.6339 91.1967 17.3645 90.6985 17.1278C90.2002 16.8927 89.6863 16.6937 89.1586 16.5324C88.6308 16.3729 88.0926 16.2493 87.5457 16.167C86.9988 16.0829 86.4502 16.04 85.8964 16.0366C85.3426 16.0331 84.7922 16.0692 84.2454 16.1447C83.6967 16.2202 83.1586 16.3368 82.6273 16.4895C82.0978 16.6439 81.5822 16.8361 81.0804 17.066C80.5787 17.2942 80.0961 17.5584 79.6343 17.8569C78.6863 18.4694 77.8443 19.1986 77.1082 20.0479C76.353 20.9194 75.7263 21.8751 75.2297 22.9113Z" fill="black"/>
<path d="M9.45297 50.7015C7.56755 50.7015 6.2672 50.1353 5.55019 48.9996C4.83317 47.8603 4.72033 46.2596 5.20991 44.1956L7.76547 33.2015C8.23769 31.2113 9.0797 29.7118 10.2932 28.6996C11.5103 27.6839 13.0641 27.176 14.953 27.176C16.8366 27.176 18.1509 27.6839 18.8974 28.6996C19.6422 29.7118 19.7794 31.2113 19.3071 33.2015L16.7446 44.1956C16.2585 46.2785 15.3922 47.8844 14.1474 49.0133C12.9061 50.1388 11.3419 50.7015 9.45297 50.7015ZM10.4321 46.4535C10.8523 46.4535 11.1787 46.275 11.4113 45.9182C11.6474 45.5613 11.8384 45.0603 11.9877 44.4152L14.6266 33.1192C14.7325 32.6165 14.7585 32.2098 14.703 31.8976C14.6509 31.5819 14.4182 31.4241 14.0016 31.4241C13.2186 31.4241 12.6908 32.0074 12.4182 33.1741L9.77936 44.4358C9.61616 45.0998 9.57449 45.6025 9.65436 45.9456C9.73769 46.2853 9.99637 46.4535 10.4321 46.4535Z" fill="black"/>
<path d="M25.6663 50.7015C23.5448 50.7015 22.1351 50.1834 21.4371 49.1437C20.7392 48.1057 20.6628 46.4295 21.208 44.1133L21.7219 41.8554H26.3191L25.6455 44.7378C25.3712 45.8822 25.6055 46.4535 26.3469 46.4535C26.767 46.4535 27.0899 46.3351 27.3121 46.0966C27.5378 45.8547 27.7166 45.4447 27.8469 44.8682C28.0274 44.1184 28.0795 43.4956 28.0066 43.0015C27.9371 42.5074 27.8017 42.0956 27.6038 41.7662C27.4041 41.4334 27.0222 40.9152 26.458 40.2152L24.9094 38.225C23.7097 36.7204 23.3191 35.0545 23.7357 33.229C24.1889 31.2576 24.9962 29.7564 26.1594 28.727C27.3208 27.6942 28.7809 27.176 30.5413 27.176C32.642 27.176 34.0291 27.7285 34.701 28.8299C35.3712 29.9331 35.4267 31.6574 34.8677 34.0045H30.1038L30.458 32.4192C30.5309 32.1138 30.5031 31.8701 30.3746 31.6917C30.2496 31.5133 30.0309 31.4241 29.7219 31.4241C29.3607 31.4241 29.0621 31.5236 28.826 31.7192C28.5899 31.9165 28.4337 32.1858 28.3607 32.529C28.1802 33.2804 28.4337 34.0594 29.1246 34.8692L31.2496 37.4496C31.7357 38.0586 32.1246 38.6368 32.4163 39.1858C32.708 39.7314 32.892 40.3765 32.9719 41.1211C33.0552 41.8623 32.9788 42.7459 32.7427 43.7701C32.201 46.0451 31.3712 47.7694 30.2566 48.9447C29.1403 50.1165 27.6107 50.7015 25.6663 50.7015Z" fill="black"/>
<path d="M37.7205 50.4887L42.0746 31.8289H39.2968L40.3316 27.3887H50.5607L49.526 31.8289H46.7552L42.401 50.4887H37.7205Z" fill="black"/>
<path d="M55.0482 50.7015C53.1628 50.7015 51.8624 50.1353 51.1454 48.9996C50.4284 47.8603 50.3155 46.2596 50.8051 44.1956L53.3607 33.2015C53.8329 31.2113 54.6749 29.7118 55.8885 28.6996C57.1055 27.6839 58.6593 27.176 60.5482 27.176C62.4319 27.176 63.7461 27.6839 64.4926 28.6996C65.2374 29.7118 65.3746 31.2113 64.9023 33.2015L62.3398 44.1956C61.8537 46.2785 60.9874 47.8844 59.7426 49.0133C58.5013 50.1388 56.9371 50.7015 55.0482 50.7015ZM56.0273 46.4535C56.4475 46.4535 56.7739 46.275 57.0065 45.9182C57.2426 45.5613 57.4336 45.0603 57.5829 44.4152L60.2218 33.1192C60.3277 32.6165 60.3537 32.2098 60.2982 31.8976C60.2461 31.5819 60.0135 31.4241 59.5968 31.4241C58.8138 31.4241 58.286 32.0074 58.0135 33.1741L55.3746 44.4358C55.2114 45.0998 55.1697 45.6025 55.2496 45.9456C55.3329 46.2853 55.5916 46.4535 56.0273 46.4535Z" fill="black"/>
<path d="M71.2894 50.7015C69.404 50.7015 68.1036 50.1353 67.3866 48.9996C66.6696 47.8603 66.5568 46.2596 67.0463 44.1956L69.6019 33.2015C70.0741 31.2113 70.9161 29.7118 72.1297 28.6996C73.3467 27.6839 74.9005 27.176 76.7894 27.176C78.6731 27.176 79.9873 27.6839 80.7338 28.6996C81.4786 29.7118 81.6158 31.2113 81.1436 33.2015L78.5811 44.1956C78.0949 46.2785 77.2286 47.8844 75.9838 49.0133C74.7425 50.1388 73.1783 50.7015 71.2894 50.7015ZM72.2686 46.4535C72.6887 46.4535 73.0151 46.275 73.2477 45.9182C73.4838 45.5613 73.6748 45.0603 73.8241 44.4152L76.463 33.1192C76.5689 32.6165 76.5949 32.2098 76.5394 31.8976C76.4873 31.5819 76.2547 31.4241 75.838 31.4241C75.055 31.4241 74.5272 32.0074 74.2547 33.1741L71.6158 44.4358C71.4526 45.0998 71.4109 45.6025 71.4908 45.9456C71.5741 46.2853 71.8328 46.4535 72.2686 46.4535Z" fill="black"/>
<path d="M82.0098 50.4887L87.3987 27.3887H92.0792L87.6139 46.5632H92.4334L91.5028 50.4887H82.0098Z" fill="black"/>
</svg>
