<svg width="192" height="108" viewBox="0 0 192 108" fill="none" xmlns="http://www.w3.org/2000/svg">
<mask id="mask0_49_1336" style="mask-type:luminance" maskUnits="userSpaceOnUse" x="1" y="30" width="64" height="17">
<path d="M1.75781 30.4941H64.0511V46.1779H1.75781V30.4941Z" fill="white"/>
</mask>
<g mask="url(#mask0_49_1336)">
<path d="M63.7177 42.6176C41.331 44.3779 26.051 42.2834 17.111 40.1889C19.1344 40.1923 21.161 40.136 23.1244 40.0367C24.991 39.9408 26.8477 39.8084 28.6977 39.643C30.2444 39.5073 33.101 39.2261 34.8244 39.0044C31.3677 38.4518 27.9544 37.7537 24.601 36.9926C21.6277 36.3176 18.6877 35.5698 15.8477 34.6963C13.5744 33.9981 11.511 33.0783 9.41436 32.2048C7.65769 31.4768 5.15103 30.2128 3.20769 31.3147C1.70103 32.1684 1.68436 33.922 1.81436 35.0834C2.18103 38.3724 7.15436 40.3147 9.7777 41.4926C12.9777 42.932 16.3777 43.9048 19.8177 44.5764C26.8977 45.9562 34.201 46.1184 41.3877 45.7147C47.1277 45.3871 52.8244 44.7088 58.481 43.6798C60.1844 43.3753 61.951 43.0014 63.7177 42.6176Z" fill="white"/>
</g>
<mask id="mask1_49_1336" style="mask-type:luminance" maskUnits="userSpaceOnUse" x="4" y="3" width="187" height="36">
<path d="M4.31787 3.78198H190.391V38.9647H4.31787V3.78198Z" fill="white"/>
</mask>
<g mask="url(#mask1_49_1336)">
<path d="M188.208 26.0437C187.141 25.5606 186.048 25.104 184.931 24.6772C183.611 24.1676 182.265 23.7011 180.891 23.2676C177.491 22.2088 174.041 21.3783 170.531 20.7662C166.961 20.1507 163.368 19.7173 159.751 19.4592C158.845 19.3963 157.935 19.3268 157.028 19.2871L155.665 19.2143L154.301 19.1647C153.848 19.1481 153.391 19.1316 152.938 19.1184L151.575 19.0952C150.665 19.072 149.755 19.0754 148.845 19.0687C148.391 19.0621 147.938 19.0654 147.481 19.0687L146.121 19.0787C145.211 19.0886 144.305 19.1084 143.398 19.125L140.681 19.2077C139.778 19.2441 138.871 19.2772 137.971 19.3169C136.165 19.3996 134.361 19.4923 132.565 19.5948C131.665 19.6478 130.765 19.704 129.868 19.7636L127.175 19.939C120.005 20.4187 112.858 21.0077 105.738 21.6033C98.6146 22.1956 91.5112 22.8011 84.4179 23.304C80.8712 23.5621 77.3279 23.7871 73.7846 23.9823C70.2446 24.1743 66.7046 24.3364 63.1679 24.439C59.6312 24.5415 56.1012 24.6143 52.5746 24.6011C52.1346 24.6011 51.6912 24.6044 51.2512 24.6011L49.9312 24.5845C49.0512 24.5746 48.1712 24.5746 47.2912 24.5481L44.6546 24.4853L42.0212 24.3893C39.2446 24.2735 36.4779 24.1147 33.7212 23.9062C34.6346 23.5522 35.5379 23.1882 36.4279 22.8143C41.0846 20.8522 45.4246 18.6783 49.7379 16.6136C54.0512 14.5522 58.3479 12.5868 62.8446 11.0515C63.4079 10.8662 63.9679 10.6709 64.5379 10.4989C64.8212 10.4129 65.1012 10.3202 65.3879 10.2342L66.2512 9.99263C66.8279 9.8305 67.3979 9.65844 67.9879 9.52278L68.8646 9.30771C69.1579 9.23491 69.4479 9.1555 69.7446 9.09594L71.5246 8.71212L73.3246 8.37793C73.4746 8.35146 73.6246 8.31837 73.7779 8.29521L74.2312 8.22572L75.1412 8.08675C75.4479 8.04374 75.7512 7.98749 76.0546 7.95109L76.9746 7.83859L77.8946 7.72278C78.2012 7.68638 78.5112 7.66322 78.8212 7.63344L79.7479 7.5441L80.2112 7.49778L80.6779 7.46469C81.2979 7.42168 81.9179 7.37205 82.5412 7.33565L84.4146 7.24962C86.9212 7.16359 89.4379 7.19006 91.9579 7.29263C92.5879 7.32241 93.2212 7.34227 93.8512 7.38528L95.7412 7.51102C97.0012 7.62021 98.2612 7.72609 99.5179 7.87168C102.031 8.15293 104.545 8.49043 107.035 8.91396C112.021 9.76102 116.958 10.8496 121.815 12.1368C126.681 13.4073 131.461 14.8897 136.208 16.4548C133.991 15.4522 131.738 14.4926 129.445 13.5761C127.158 12.6562 124.825 11.7959 122.458 10.9754C117.658 9.30771 112.778 7.90146 107.821 6.7533C102.715 5.57205 97.5512 4.74153 92.3279 4.25844C89.6846 4.02352 87.0212 3.89116 84.3346 3.86469C81.6546 3.84153 78.9612 3.94741 76.2779 4.17903L75.2712 4.26506C74.9379 4.29153 74.6046 4.34116 74.2679 4.37425L73.2679 4.49337L72.7646 4.54962C72.5979 4.56947 72.4312 4.59594 72.2679 4.6191L70.2712 4.91359L68.2912 5.26433C67.9612 5.32058 67.6346 5.39337 67.3079 5.46285L66.3279 5.67131C65.6679 5.80035 65.0279 5.9691 64.3812 6.12793L63.4112 6.36616C63.0912 6.44888 62.7746 6.54153 62.4546 6.62756C61.8112 6.79962 61.1879 6.99153 60.5579 7.17683C60.2412 7.26947 59.9346 7.37535 59.6212 7.47462C59.3112 7.57057 59.0012 7.66984 58.6946 7.77572C58.0846 7.98418 57.4646 8.18602 56.8612 8.40771L55.9546 8.73528L55.0579 9.06947C54.4579 9.29116 53.8746 9.5294 53.2846 9.76102C50.9379 10.6974 48.6579 11.6868 46.4179 12.6893L39.7846 15.6871C37.5912 16.6731 35.4012 17.6195 33.1979 18.5062C30.9946 19.3897 28.7679 20.1937 26.5112 20.8919C24.2546 21.5868 21.9679 22.1493 19.6446 22.5827L4.77124 25.3423L19.8179 27.5757C23.4212 28.1084 27.0446 28.5452 30.6879 28.886C34.3279 29.2235 37.9812 29.4452 41.6312 29.6073C48.9346 29.9018 56.2379 29.8654 63.4912 29.5842C78.0079 29.0283 92.3212 27.5658 106.515 26.0073C108.741 25.7625 110.965 25.5176 113.185 25.2695C110.095 25.9048 107.015 26.5632 103.948 27.2515L93.3546 29.6537C89.8312 30.4643 86.3079 31.2452 82.7779 31.9963L80.1312 32.5522C79.2479 32.7375 78.3646 32.9162 77.4812 33.0915L73.5012 33.8757L72.1912 34.1173C68.6812 34.7294 65.1312 35.1728 61.5612 35.4706C54.3779 36.0397 47.1912 36.0794 40.0012 35.593C32.7712 35.1132 25.6012 34.1669 18.4979 32.754C25.4112 34.9147 32.5679 36.4037 39.8112 37.3566C47.0979 38.2996 54.4146 38.6173 61.7579 38.3062C65.4412 38.1441 69.1079 37.7967 72.7546 37.2573L74.1246 37.0456L75.4712 36.8206C76.3712 36.6717 77.2679 36.5162 78.1646 36.3507C79.0612 36.1919 79.9579 36.0298 80.8512 35.861L83.5346 35.3515C87.1079 34.6599 90.6612 33.9022 94.2112 33.1379L104.818 30.7787C108.345 29.9879 111.871 29.207 115.401 28.4823C118.925 27.7412 122.461 27.0662 126.005 26.4606C129.548 25.8452 133.101 25.329 136.671 24.889L139.348 24.5812L142.031 24.3132L144.718 24.0783L147.408 23.8831L150.105 23.7276L152.805 23.6051C154.611 23.5323 156.418 23.4794 158.225 23.4298C161.835 23.3437 165.441 23.3272 169.041 23.4595C174.381 23.6349 179.718 24.1676 184.955 25.2761C186.798 25.8154 188.608 26.4209 190.385 27.0926C189.675 26.7287 188.948 26.3812 188.208 26.0437Z" fill="white"/>
</g>
<path d="M144.441 44.186C144.898 41.936 145.748 39.8415 146.994 37.9026C148.254 35.9239 149.814 34.2132 151.674 32.7673C153.558 31.3015 155.631 30.1864 157.901 29.4221C158.464 29.2335 159.044 29.0879 159.618 28.9224C160.198 28.7934 160.784 28.6842 161.371 28.5651C161.961 28.489 162.554 28.4261 163.148 28.3599L164.041 28.3103C164.338 28.2971 164.638 28.3004 164.938 28.2971C166.134 28.307 167.321 28.4129 168.501 28.6114C169.681 28.8165 170.834 29.1176 171.961 29.5114C174.221 30.3022 176.281 31.4437 178.144 32.936C179.984 34.4051 181.521 36.139 182.758 38.1342C183.974 40.0897 184.791 42.1974 185.208 44.4574C184.741 43.4482 184.211 42.4721 183.621 41.529C183.041 40.6026 182.398 39.7224 181.691 38.8853C180.301 37.2276 178.701 35.8015 176.898 34.5971C176.018 34.0081 175.098 33.4886 174.141 33.032C173.184 32.5787 172.198 32.1949 171.184 31.8838C170.171 31.5761 169.138 31.3379 168.088 31.179C167.038 31.0169 165.984 30.9342 164.921 30.9276C163.858 30.921 162.801 30.9904 161.751 31.136C160.698 31.2816 159.664 31.5066 158.644 31.8011C157.628 32.0989 156.638 32.4695 155.674 32.9129C154.711 33.3529 153.784 33.8625 152.898 34.4382C151.078 35.6195 149.461 37.0257 148.048 38.6636C146.598 40.3445 145.394 42.1875 144.441 44.186Z" fill="white"/>
<path d="M18.1498 97.7813C14.5298 97.7813 12.0331 96.6894 10.6565 94.4989C9.2798 92.3019 9.06314 89.2148 10.0031 85.2342L14.9098 64.0313C15.8165 60.1931 17.4331 57.3011 19.7631 55.3489C22.0998 53.3901 25.0831 52.4107 28.7098 52.4107C32.3265 52.4107 34.8498 53.3901 36.2831 55.3489C37.7131 57.3011 37.9765 60.1931 37.0698 64.0313L32.1498 85.2342C31.2165 89.2511 29.5531 92.3482 27.1631 94.5254C24.7798 96.696 21.7765 97.7813 18.1498 97.7813ZM20.0298 89.5886C20.8365 89.5886 21.4631 89.2445 21.9098 88.5563C22.3631 87.8681 22.7298 86.9019 23.0165 85.6578L28.0831 63.8725C28.2865 62.903 28.3365 62.1188 28.2298 61.5166C28.1298 60.9078 27.6831 60.6034 26.8831 60.6034C25.3798 60.6034 24.3665 61.7284 23.8431 63.9784L18.7765 85.6975C18.4631 86.978 18.3831 87.9475 18.5365 88.6092C18.6965 89.2644 19.1931 89.5886 20.0298 89.5886Z" fill="white"/>
<path d="M49.2795 97.7813C45.2062 97.7813 42.4995 96.782 41.1595 94.7769C39.8195 92.775 39.6729 89.5423 40.7195 85.0754L41.7062 80.721H50.5329L49.2395 86.2798C48.7129 88.4868 49.1629 89.5886 50.5862 89.5886C51.3929 89.5886 52.0129 89.3603 52.4395 88.9004C52.8729 88.4339 53.2162 87.6431 53.4662 86.5313C53.8129 85.0853 53.9129 83.8842 53.7729 82.9313C53.6395 81.9784 53.3795 81.1842 52.9995 80.5489C52.6162 79.907 51.8829 78.9078 50.7995 77.5578L47.8262 73.7195C45.5229 70.8177 44.7729 67.6048 45.5729 64.0842C46.4429 60.2824 47.9929 57.3872 50.2262 55.4019C52.4562 53.41 55.2595 52.4107 58.6395 52.4107C62.6729 52.4107 65.3362 53.4761 66.6262 55.6004C67.9129 57.728 68.0195 61.0534 66.9462 65.5798H57.7995L58.4795 62.5225C58.6195 61.9335 58.5662 61.4636 58.3195 61.1195C58.0795 60.7754 57.6595 60.6034 57.0662 60.6034C56.3729 60.6034 55.7995 60.7953 55.3462 61.1725C54.8929 61.553 54.5929 62.0725 54.4529 62.7342C54.1062 64.1835 54.5929 65.6857 55.9195 67.2475L59.9995 72.2239C60.9329 73.3986 61.6795 74.5136 62.2395 75.5725C62.7995 76.6247 63.1529 77.8688 63.3062 79.3048C63.4662 80.7342 63.3195 82.4383 62.8662 84.4136C61.8262 88.8011 60.2329 92.1265 58.0929 94.3931C55.9495 96.653 53.0129 97.7813 49.2795 97.7813Z" fill="white"/>
<path d="M72.4235 97.371L80.7835 61.3842H75.4501L77.4368 52.821H97.0768L95.0901 61.3842H89.7701L81.4101 97.371H72.4235Z" fill="white"/>
<path d="M105.692 97.7813C102.072 97.7813 99.5757 96.6894 98.1991 94.4989C96.8224 92.3019 96.6057 89.2148 97.5457 85.2342L102.452 64.0313C103.359 60.1931 104.976 57.3011 107.306 55.3489C109.642 53.3901 112.626 52.4107 116.252 52.4107C119.869 52.4107 122.392 53.3901 123.826 55.3489C125.256 57.3011 125.519 60.1931 124.612 64.0313L119.692 85.2342C118.759 89.2511 117.096 92.3482 114.706 94.5254C112.322 96.696 109.319 97.7813 105.692 97.7813ZM107.572 89.5886C108.379 89.5886 109.006 89.2445 109.452 88.5563C109.906 87.8681 110.272 86.9019 110.559 85.6578L115.626 63.8725C115.829 62.903 115.879 62.1188 115.772 61.5166C115.672 60.9078 115.226 60.6034 114.426 60.6034C112.922 60.6034 111.909 61.7284 111.386 63.9784L106.319 85.6975C106.006 86.978 105.926 87.9475 106.079 88.6092C106.239 89.2644 106.736 89.5886 107.572 89.5886Z" fill="white"/>
<path d="M136.876 97.7813C133.256 97.7813 130.759 96.6894 129.382 94.4989C128.006 92.3019 127.789 89.2148 128.729 85.2342L133.636 64.0313C134.542 60.1931 136.159 57.3011 138.489 55.3489C140.826 53.3901 143.809 52.4107 147.436 52.4107C151.052 52.4107 153.576 53.3901 155.009 55.3489C156.439 57.3011 156.702 60.1931 155.796 64.0313L150.876 85.2342C149.942 89.2511 148.279 92.3482 145.889 94.5254C143.506 96.696 140.502 97.7813 136.876 97.7813ZM138.756 89.5886C139.562 89.5886 140.189 89.2445 140.636 88.5563C141.089 87.8681 141.456 86.9019 141.742 85.6578L146.809 63.8725C147.012 62.903 147.062 62.1188 146.956 61.5166C146.856 60.9078 146.409 60.6034 145.609 60.6034C144.106 60.6034 143.092 61.7284 142.569 63.9784L137.502 85.6975C137.189 86.978 137.109 87.9475 137.262 88.6092C137.422 89.2644 137.919 89.5886 138.756 89.5886Z" fill="white"/>
<path d="M157.458 97.371L167.805 52.821H176.792L168.218 89.8004H177.472L175.685 97.371H157.458Z" fill="white"/>
</svg>
